<svg xmlns="http://www.w3.org/2000/svg" width="26" height="37" viewBox="0 0 26 37" fill="none">
  <path d="M25.2751 36.3394L2.61188 0.599533C2.59264 0.569257 2.566 0.544267 2.53441 0.526871C2.50282 0.509474 2.46732 0.500232 2.43116 0.500004H0.386655C0.367652 0.499845 0.348956 0.50478 0.332559 0.514279C0.316163 0.523779 0.302666 0.53749 0.293517 0.553959C0.284367 0.570427 0.279899 0.589039 0.280586 0.607817C0.281273 0.626594 0.287098 0.64484 0.297427 0.660612L22.9469 36.4005C22.9652 36.431 22.9914 36.4563 23.0227 36.4737C23.054 36.4912 23.0894 36.5003 23.1253 36.5H25.1744C25.1934 36.5002 25.2121 36.4952 25.2285 36.4857C25.2449 36.4762 25.2584 36.4625 25.2675 36.446C25.2767 36.4296 25.2811 36.411 25.2804 36.3922C25.2798 36.3734 25.2739 36.3552 25.2636 36.3394" fill="#004D6D"/>
</svg>
