<svg xmlns="http://www.w3.org/2000/svg" width="45" height="160" viewBox="0 0 45 160" fill="none">
  <path fill-rule="evenodd" clip-rule="evenodd" d="M28.8106 136.21V8.90708C28.8111 8.86047 28.8024 8.81422 28.7849 8.771C28.7675 8.72779 28.7416 8.68848 28.7088 8.65533C28.676 8.62219 28.637 8.59587 28.594 8.57791C28.551 8.55995 28.5049 8.55071 28.4582 8.55071H16.546C16.4515 8.55071 16.3609 8.58826 16.294 8.65509C16.2272 8.72192 16.1897 8.81257 16.1897 8.90708V136.238C16.1897 136.284 16.1804 136.33 16.1625 136.373C16.1445 136.416 16.1182 136.455 16.0851 136.488C16.0519 136.521 16.0126 136.547 15.9694 136.564C15.9261 136.582 15.8799 136.591 15.8333 136.59H3.15229C3.10568 136.591 3.05943 136.582 3.01621 136.564C2.973 136.547 2.93369 136.521 2.90054 136.488C2.8674 136.455 2.84108 136.416 2.82312 136.373C2.80516 136.33 2.79591 136.284 2.79592 136.238V2.90092C2.79591 2.85431 2.80516 2.80816 2.82312 2.76515C2.84108 2.72214 2.8674 2.68311 2.90054 2.65034C2.93369 2.61756 2.973 2.59169 3.01621 2.57422C3.05943 2.55675 3.10568 2.54803 3.15229 2.54856H41.848C41.8946 2.54803 41.9408 2.55675 41.984 2.57422C42.0273 2.59169 42.0666 2.61756 42.0997 2.65034C42.1329 2.68311 42.1592 2.72214 42.1771 2.76515C42.1951 2.80816 42.2043 2.85431 42.2043 2.90092V136.238C42.2043 136.284 42.1951 136.33 42.1771 136.373C42.1592 136.416 42.1329 136.455 42.0997 136.488C42.0666 136.521 42.0273 136.547 41.984 136.564C41.9408 136.582 41.8946 136.591 41.848 136.59H29.167C29.1204 136.591 29.0741 136.582 29.0309 136.564C28.9877 136.547 28.9484 136.521 28.9152 136.488C28.8821 136.455 28.8558 136.416 28.8378 136.373C28.8198 136.33 28.8106 136.284 28.8106 136.238V136.21ZM26.7365 129.691C26.7453 129.983 26.6398 130.267 26.4423 130.482C26.2449 130.698 25.9711 130.828 25.6794 130.844C23.5615 130.96 21.4388 130.96 19.3209 130.844C19.0295 130.828 18.7562 130.698 18.5594 130.482C18.3626 130.267 18.2579 129.983 18.2678 129.691L21.8715 14.0123C21.8725 13.9705 21.8899 13.9308 21.9198 13.9016C21.9497 13.8725 21.9899 13.8561 22.0317 13.8561H22.9926C23.0135 13.8556 23.0342 13.8593 23.0536 13.8669C23.073 13.8745 23.0907 13.8859 23.1057 13.9005C23.1206 13.915 23.1324 13.9324 23.1405 13.9516C23.1486 13.9708 23.1528 13.9915 23.1528 14.0123L26.7365 129.691ZM23.9336 11.9942C23.5082 12.2628 23.0153 12.4054 22.5122 12.4054C22.009 12.4054 21.5161 12.2628 21.0907 11.9942L18.1437 10.1083C18.1125 10.0868 18.0889 10.056 18.0762 10.0203C18.0636 9.98458 18.0625 9.94579 18.0731 9.90944C18.0838 9.87308 18.1056 9.84101 18.1355 9.81777C18.1654 9.79453 18.2019 9.7813 18.2398 9.77997H26.7605C26.7999 9.77828 26.8386 9.78983 26.8707 9.81277C26.9027 9.8357 26.9261 9.8687 26.9372 9.90651C26.9482 9.94431 26.9463 9.98473 26.9317 10.0213C26.9171 10.0579 26.8907 10.0885 26.8566 10.1083L23.9336 11.9942ZM43.3135 0.0299726H1.7028C1.5158 0.0294458 1.33054 0.0658291 1.15762 0.137028C0.984695 0.208227 0.827525 0.312853 0.695106 0.4449C0.562687 0.576947 0.457612 0.733822 0.385927 0.906543C0.314242 1.07926 0.277344 1.26443 0.277344 1.45144V158.577C0.277344 158.955 0.427536 159.317 0.694862 159.585C0.962188 159.852 1.32475 160.002 1.7028 160.002H43.3015C43.4885 160.002 43.6736 159.965 43.8464 159.893C44.0191 159.822 44.176 159.717 44.308 159.584C44.4401 159.452 44.5447 159.295 44.6159 159.122C44.6871 158.949 44.7234 158.764 44.7229 158.577V1.42341C44.7229 1.04641 44.5731 0.684861 44.3066 0.418286C44.04 0.151711 43.6785 0.00195312 43.3015 0.00195312L43.3135 0.0299726ZM14.8443 141.875L11.641 146.981C11.5704 147.103 11.4688 147.204 11.3465 147.274C11.2241 147.345 11.0854 147.381 10.9443 147.381H10.0834L8.96223 144.774C8.94818 144.744 8.92562 144.718 8.89723 144.699C8.86883 144.681 8.8358 144.671 8.80206 144.671C8.76832 144.671 8.73531 144.681 8.70692 144.699C8.67853 144.718 8.65596 144.744 8.64191 144.774L7.52077 147.381H6.65987C6.51876 147.381 6.38 147.345 6.25765 147.274C6.13531 147.204 6.03372 147.103 5.96316 146.981L2.75988 141.875C2.75461 141.867 2.75173 141.858 2.75157 141.848C2.75141 141.838 2.754 141.829 2.759 141.82C2.764 141.812 2.77122 141.805 2.77987 141.801C2.78852 141.796 2.79824 141.794 2.80793 141.795H4.1413C4.16402 141.795 4.18637 141.801 4.20655 141.811C4.22673 141.822 4.24416 141.837 4.25741 141.855L6.50772 145.299C6.52666 145.329 6.55332 145.353 6.58489 145.369C6.61646 145.385 6.65176 145.392 6.68705 145.389C6.72234 145.387 6.75632 145.375 6.78537 145.355C6.81442 145.335 6.83745 145.307 6.85206 145.275L7.88914 143.169C7.90118 143.145 7.91958 143.126 7.94224 143.112C7.96491 143.099 7.99092 143.092 8.01727 143.093H9.56285C9.58872 143.092 9.61427 143.098 9.63634 143.112C9.65841 143.125 9.67601 143.145 9.68698 143.169L10.728 145.275C10.7427 145.307 10.7657 145.335 10.7948 145.355C10.8238 145.375 10.8578 145.387 10.8931 145.389C10.9284 145.392 10.9636 145.385 10.9952 145.369C11.0268 145.353 11.0535 145.329 11.0724 145.299L13.3227 141.855C13.3357 141.837 13.3531 141.821 13.3733 141.811C13.3936 141.8 13.416 141.795 13.4388 141.795H14.7722C14.7819 141.794 14.7916 141.796 14.8003 141.801C14.803 141.802 14.8056 141.804 14.808 141.806L14.8105 141.808L14.8132 141.81C14.8162 141.813 14.8189 141.817 14.8211 141.82C14.8261 141.829 14.8287 141.838 14.8286 141.848C14.8285 141.852 14.8279 141.857 14.8267 141.861C14.8253 141.866 14.8231 141.871 14.8202 141.875H14.8443ZM19.429 146.12C19.7182 146.585 20.1259 146.965 20.6102 147.221V147.249C20.7942 147.346 20.9989 147.397 21.2068 147.398H28.6545C28.6586 147.398 28.6626 147.397 28.6666 147.397L28.6714 147.396L28.6745 147.395C28.6778 147.393 28.6811 147.392 28.6841 147.39C28.686 147.389 28.6878 147.388 28.6895 147.386C28.6958 147.381 28.701 147.375 28.7044 147.367C28.7056 147.364 28.7066 147.362 28.7073 147.359C28.7078 147.357 28.7082 147.355 28.7085 147.353C28.7093 147.348 28.7092 147.342 28.7083 147.337C28.7078 147.334 28.7069 147.331 28.7059 147.328L28.7044 147.324L28.703 147.321L28.7009 147.318C28.6991 147.315 28.6969 147.312 28.6945 147.309L27.8056 146.437C27.7905 146.421 27.7724 146.409 27.7524 146.401C27.7325 146.392 27.7111 146.388 27.6895 146.388H21.9876C21.8063 146.388 21.6277 146.344 21.4671 146.26C21.2865 146.162 21.1294 146.025 21.0066 145.86C20.9261 145.756 20.8825 145.627 20.8825 145.496V144.827H25.7595C25.7811 144.827 25.8025 144.823 25.8225 144.815C25.8424 144.806 25.8605 144.794 25.8756 144.779L26.6324 144.034C26.639 144.026 26.6434 144.017 26.6451 144.007C26.6467 143.997 26.6457 143.987 26.642 143.977C26.6383 143.968 26.6321 143.959 26.6241 143.953C26.6197 143.95 26.6148 143.947 26.6097 143.945C26.6054 143.944 26.6009 143.943 26.5963 143.942H20.8825V142.693H27.8136C27.8352 142.693 27.8566 142.689 27.8766 142.681C27.8965 142.672 27.9146 142.66 27.9297 142.645L28.6945 141.884C28.6985 141.88 28.7018 141.875 28.7042 141.87C28.7055 141.867 28.7065 141.864 28.7073 141.861L28.7083 141.857C28.7091 141.852 28.7092 141.847 28.7088 141.843C28.7083 141.837 28.7068 141.831 28.7044 141.826C28.7001 141.817 28.693 141.809 28.6841 141.803C28.6752 141.798 28.6649 141.795 28.6545 141.796H19.389C19.3603 141.796 19.3328 141.807 19.3125 141.827C19.2922 141.848 19.2809 141.875 19.2809 141.904V145.596C19.2812 145.781 19.3324 145.962 19.429 146.12ZM25.3191 152.254H23.8016V154.773H23.0848V152.254H21.5633V151.533H25.3191V152.254ZM28.1539 151.537H28.8586V154.772H28.1539V151.537ZM35.3815 154.773H34.6448L32.4745 152.586V154.773H31.7418V151.533H32.4745L34.6448 153.727V151.533H35.3815V154.773ZM41.3633 152.506H42.0721V152.106C42.0726 152.03 42.058 151.955 42.0292 151.885C42.0004 151.815 41.9578 151.752 41.9041 151.698C41.8504 151.645 41.7866 151.603 41.7164 151.574C41.6463 151.546 41.5711 151.532 41.4955 151.533H38.8087C38.7328 151.532 38.6575 151.546 38.5871 151.574C38.5167 151.603 38.4527 151.645 38.3986 151.698C38.3446 151.751 38.3017 151.815 38.2725 151.885C38.2432 151.955 38.2281 152.03 38.2281 152.106V154.196C38.2286 154.272 38.2441 154.346 38.2735 154.416C38.303 154.486 38.3459 154.549 38.3998 154.602C38.4537 154.656 38.5176 154.698 38.5877 154.726C38.6579 154.755 38.733 154.769 38.8087 154.768H41.5035C41.5786 154.769 41.6531 154.755 41.7226 154.726C41.7921 154.697 41.8552 154.655 41.9081 154.602C41.9611 154.548 42.0029 154.485 42.031 154.415C42.0592 154.346 42.0731 154.271 42.0721 154.196V153.423C42.071 153.27 42.0099 153.124 41.902 153.017C41.7941 152.909 41.6481 152.848 41.4955 152.846H40.1501V153.555H41.2232C41.2604 153.555 41.296 153.57 41.3223 153.596C41.3486 153.623 41.3633 153.658 41.3633 153.695V153.904C41.3633 153.906 41.3633 153.908 41.3632 153.91L41.363 153.913C41.3628 153.915 41.3627 153.917 41.3625 153.919C41.3623 153.921 41.362 153.923 41.3618 153.924C41.3601 153.936 41.357 153.947 41.3527 153.957C41.3456 153.974 41.3353 153.99 41.3223 154.003C41.3093 154.016 41.2938 154.026 41.2768 154.033C41.2598 154.04 41.2416 154.044 41.2232 154.044H39.073C39.0376 154.043 39.004 154.028 38.9793 154.002C38.9546 153.977 38.9408 153.943 38.9408 153.908V152.394C38.9408 152.359 38.9546 152.325 38.9793 152.299C39.004 152.274 39.0376 152.259 39.073 152.258H41.2272C41.2451 152.258 41.2628 152.261 41.2793 152.268C41.2958 152.275 41.3108 152.285 41.3235 152.298C41.3361 152.31 41.3461 152.325 41.353 152.342C41.3598 152.358 41.3633 152.376 41.3633 152.394V152.506ZM42.3923 141.888L38.9248 144.843C38.7759 144.97 38.6562 145.128 38.5739 145.305C38.4917 145.483 38.4488 145.676 38.4483 145.872V147.261C38.4483 147.29 38.4369 147.318 38.4166 147.338C38.3964 147.358 38.3689 147.369 38.3402 147.369H36.8667C36.838 147.369 36.8105 147.358 36.7902 147.338C36.77 147.318 36.7586 147.29 36.7586 147.261V145.872C36.758 145.676 36.7152 145.483 36.6329 145.305C36.5507 145.128 36.431 144.97 36.2821 144.843L32.8145 141.888C32.8064 141.881 32.8005 141.872 32.7976 141.862C32.7948 141.852 32.7951 141.841 32.7986 141.831C32.8021 141.821 32.8085 141.812 32.8171 141.806C32.8206 141.803 32.8243 141.801 32.8283 141.8C32.8341 141.797 32.8403 141.796 32.8466 141.796H34.4842C34.5338 141.796 34.5818 141.813 34.6204 141.844L37.4233 144.246C37.4677 144.285 37.5246 144.306 37.5834 144.306C37.6423 144.306 37.6991 144.285 37.7436 144.246L40.5465 141.844C40.5847 141.812 40.6329 141.795 40.6826 141.796H42.3203C42.3264 141.796 42.3325 141.797 42.3382 141.799C42.3423 141.801 42.3461 141.803 42.3497 141.806L42.3534 141.809C42.3552 141.81 42.357 141.812 42.3586 141.814C42.3628 141.819 42.3661 141.824 42.3682 141.831C42.3717 141.841 42.372 141.852 42.3692 141.862C42.3684 141.865 42.3672 141.868 42.3659 141.871C42.3641 141.874 42.3619 141.878 42.3594 141.881C42.3573 141.883 42.3549 141.886 42.3523 141.888H42.3923ZM3.65285 152.93H5.5428V152.938C5.63237 152.937 5.7179 152.901 5.78086 152.837C5.84383 152.774 5.87914 152.688 5.87913 152.598C5.87916 152.508 5.84399 152.422 5.78113 152.357C5.71827 152.293 5.63273 152.256 5.5428 152.254H3.65285V152.93ZM2.94414 151.541H5.5428C5.81139 151.558 6.06356 151.676 6.24789 151.872C6.43223 152.068 6.53486 152.327 6.53486 152.596C6.53486 152.865 6.43223 153.124 6.24789 153.32C6.06356 153.516 5.81139 153.635 5.5428 153.651H3.65285V154.776H2.94414V151.541ZM16.7783 153.523L17.6032 152.094L18.428 153.523H16.7783ZM18.1317 151.521H17.0746L15.2087 154.757H16.0456L16.3499 154.224H18.8484L19.1568 154.757H20.0056L18.1317 151.521ZM12.2659 154.001C12.2913 153.975 12.3056 153.94 12.3055 153.904L12.3256 152.394C12.3256 152.358 12.3114 152.323 12.2859 152.296C12.2605 152.27 12.2259 152.255 12.1894 152.254H10.0392C10.0208 152.254 10.0027 152.259 9.9859 152.266C9.96909 152.274 9.95391 152.284 9.94127 152.298C9.92863 152.311 9.91877 152.327 9.91221 152.344C9.90566 152.361 9.90254 152.38 9.90307 152.398V153.904C9.90306 153.94 9.91729 153.975 9.94271 154.001C9.96813 154.028 10.0028 154.043 10.0392 154.044H12.1694C12.2059 154.043 12.2405 154.028 12.2659 154.001ZM9.73491 151.533H12.4417C12.5164 151.534 12.5901 151.55 12.6587 151.58C12.7273 151.609 12.7894 151.652 12.8414 151.705C12.8935 151.759 12.9345 151.822 12.9621 151.892C12.9897 151.961 13.0033 152.035 13.0023 152.11V154.196C13.0033 154.346 12.945 154.49 12.84 154.598C12.735 154.705 12.5918 154.766 12.4417 154.769H9.73491C9.66042 154.768 9.58679 154.753 9.51823 154.724C9.44967 154.695 9.38753 154.652 9.33542 154.599C9.28332 154.546 9.24227 154.483 9.21462 154.414C9.18697 154.344 9.17329 154.27 9.17435 154.196V152.11C9.17275 152.035 9.18604 151.961 9.21345 151.891C9.24086 151.821 9.28182 151.758 9.33398 151.704C9.38614 151.651 9.44845 151.608 9.51728 151.578C9.5861 151.549 9.66008 151.534 9.73491 151.533Z" fill="white"/>
</svg>
