<svg xmlns="http://www.w3.org/2000/svg" width="114" height="16" viewBox="0 0 114 16" fill="none">
  <path d="M113.848 6.83881e-05H109.152C109.006 0.00139065 108.865 0.0534392 108.754 0.14724L100.698 7.07323C100.57 7.18363 100.406 7.24437 100.237 7.24437C100.068 7.24437 99.9051 7.18363 99.7772 7.07323L91.7052 0.153508C91.5938 0.0597075 91.4532 0.00765896 91.3075 0.0063367H86.6109C86.5796 0.00539096 86.5487 0.0142557 86.5227 0.0316966C86.4967 0.0491376 86.4767 0.0742843 86.4657 0.10361C86.4546 0.132936 86.4531 0.164986 86.4611 0.195265C86.4692 0.225544 86.4865 0.252547 86.5107 0.272492L96.4582 8.74525C96.8866 9.11069 97.2306 9.5648 97.4663 10.0762C97.702 10.5876 97.8238 11.1441 97.8233 11.7073V15.6869C97.8233 15.7699 97.8564 15.8496 97.9151 15.9083C97.9738 15.967 98.0534 16 98.1365 16H102.32C102.403 16 102.482 15.967 102.541 15.9083C102.6 15.8496 102.633 15.7699 102.633 15.6869V11.701C102.632 11.1379 102.754 10.5814 102.99 10.07C103.225 9.55855 103.569 9.10442 103.998 8.73898L113.945 0.266223C113.97 0.246279 113.987 0.219276 113.995 0.188997C114.003 0.158718 114.001 0.126668 113.99 0.0973419C113.979 0.0680159 113.959 0.0428884 113.933 0.0254474C113.907 0.00800648 113.877 -0.000877358 113.845 6.83881e-05" fill="#FAFAFA"/>
  <path d="M71.7683 13.0943H55.4083C54.8882 13.0945 54.3757 12.9688 53.9148 12.7279C53.4034 12.4591 52.9551 12.0844 52.5997 11.6289C52.3656 11.3319 52.2387 10.9644 52.2396 10.5862V8.66377H66.2262C66.3516 8.66313 66.4717 8.61372 66.5613 8.526L68.7311 6.38432C68.7522 6.3633 68.7666 6.33648 68.7724 6.30728C68.7782 6.27808 68.7753 6.2478 68.7639 6.22029C68.7524 6.19278 68.7331 6.1693 68.7083 6.15279C68.6836 6.13628 68.6544 6.12749 68.6247 6.12756H52.2396V2.54247H72.1252C72.2497 2.54236 72.3691 2.49281 72.4571 2.4047L74.6489 0.256752C74.6698 0.235922 74.6841 0.209396 74.6901 0.180482C74.696 0.151567 74.6933 0.121541 74.6823 0.0941585C74.6712 0.0667755 74.6524 0.0432511 74.6281 0.0265066C74.6038 0.00976198 74.5751 0.000537557 74.5456 0H47.9625C47.8795 0 47.7998 0.0329928 47.7411 0.0917123C47.6824 0.150432 47.6494 0.230068 47.6494 0.31311V10.9025C47.6486 11.4348 47.7972 11.9566 48.0784 12.4086C48.9033 13.7446 50.071 14.8355 51.46 15.5678C51.9891 15.846 52.578 15.9911 53.1758 15.9905H74.5424C74.572 15.99 74.6007 15.9808 74.625 15.964C74.6493 15.9473 74.6681 15.9238 74.6791 15.8964C74.6901 15.869 74.6928 15.839 74.6869 15.8101C74.681 15.7812 74.6667 15.7546 74.6458 15.7338L72.1033 13.2289C72.0153 13.1408 71.8959 13.0912 71.7714 13.0911" fill="#FAFAFA"/>
  <path d="M13.923 15.9937H11.4619C11.0612 15.9929 10.6672 15.8905 10.3167 15.6961C9.96629 15.5018 9.67085 15.2217 9.45803 14.8821L0.308967 0.237967C0.29461 0.21439 0.286749 0.18744 0.286168 0.159842C0.285586 0.132244 0.292309 0.104979 0.30566 0.0808192C0.319012 0.056659 0.338514 0.0364567 0.36219 0.022264C0.385866 0.00807124 0.412866 0.000389375 0.440467 0H4.26041C4.32689 0.000363079 4.39226 0.0171294 4.4507 0.0488088C4.50914 0.0804881 4.55886 0.126106 4.59544 0.181609L11.0518 10.0508C11.107 10.1338 11.1831 10.2008 11.2723 10.2452C11.3616 10.2896 11.461 10.3098 11.5605 10.3037C11.66 10.2977 11.7561 10.2657 11.8394 10.2109C11.9227 10.1561 11.9901 10.0804 12.0349 9.99135L15.022 3.94206C15.0542 3.87488 15.1049 3.81827 15.1681 3.7789C15.2313 3.73952 15.3045 3.719 15.379 3.71975H19.8188C19.8933 3.71937 19.9663 3.74006 20.0294 3.77939C20.0926 3.81873 20.1433 3.87512 20.1758 3.94206L23.1597 9.98822C23.2046 10.0772 23.272 10.1529 23.3553 10.2077C23.4385 10.2626 23.5347 10.2946 23.6342 10.3006C23.7337 10.3066 23.8331 10.2864 23.9223 10.2421C24.0116 10.1977 24.0876 10.1307 24.1429 10.0477L30.5992 0.184743C30.6358 0.129241 30.6855 0.0836223 30.744 0.0519429C30.8024 0.0202636 30.8678 0.00349724 30.9343 0.00313416H34.7636C34.7912 0.00352353 34.8182 0.0112054 34.8419 0.0253981C34.8656 0.0395909 34.8851 0.0597931 34.8984 0.0839534C34.9118 0.108114 34.9185 0.135378 34.9179 0.162976C34.9173 0.190574 34.9095 0.217524 34.8951 0.241101L25.746 14.8853C25.5332 15.2248 25.2378 15.5049 24.8873 15.6993C24.5369 15.8937 24.1429 15.996 23.7421 15.9968H21.2748L18.0592 8.51973C18.0205 8.42973 17.9563 8.35304 17.8745 8.29915C17.7927 8.24527 17.6968 8.21656 17.5989 8.21656C17.5009 8.21656 17.4051 8.24527 17.3233 8.29915C17.2415 8.35304 17.1773 8.42973 17.1386 8.51973L13.923 15.9937Z" fill="#FAFAFA"/>
</svg>
