<svg width="87" height="12" viewBox="0 0 87 12" fill="none" xmlns="http://www.w3.org/2000/svg">
<path d="M11.0377 11.9976H9.1901C8.88924 11.9971 8.59343 11.9203 8.33033 11.7745C8.06723 11.6286 7.84542 11.4186 7.68565 11.1638L0.816947 0.178511C0.806169 0.160825 0.800267 0.140608 0.799831 0.119906C0.799394 0.0992029 0.804441 0.0787504 0.814465 0.0606265C0.824489 0.0425027 0.83913 0.027348 0.856905 0.0167013C0.87468 0.00605464 0.89495 0.000292089 0.915672 0H3.78352C3.83342 0.000272364 3.8825 0.0128496 3.92637 0.0366139C3.97025 0.0603782 4.00757 0.0945987 4.03504 0.136234L8.88216 7.53964C8.92365 7.60187 8.98075 7.65213 9.04776 7.68542C9.11477 7.71871 9.18936 7.73386 9.26406 7.72935C9.33876 7.72483 9.41097 7.70081 9.47348 7.65969C9.53598 7.61857 9.5866 7.56179 9.62028 7.49501L11.8628 2.95714C11.887 2.90674 11.925 2.86428 11.9725 2.83474C12.02 2.8052 12.0749 2.78981 12.1308 2.79037H15.4641C15.5199 2.79009 15.5748 2.8056 15.6222 2.83511C15.6696 2.86462 15.7077 2.90692 15.7321 2.95714L17.9723 7.49266C18.0059 7.55944 18.0566 7.61622 18.1191 7.65734C18.1816 7.69846 18.2538 7.72248 18.3285 7.727C18.4032 7.73151 18.4778 7.71637 18.5448 7.68309C18.6118 7.6498 18.6689 7.59952 18.7104 7.53729L23.5575 0.138585C23.585 0.0969498 23.6223 0.0627293 23.6662 0.038965C23.7101 0.0152007 23.7591 0.00262345 23.809 0.00235109H26.6839C26.7046 0.00264318 26.7249 0.00840573 26.7427 0.0190524C26.7605 0.0296991 26.7751 0.0448538 26.7851 0.0629776C26.7952 0.0811014 26.8002 0.101554 26.7998 0.122257C26.7993 0.142959 26.7934 0.163176 26.7827 0.180862L19.9139 11.1662C19.7542 11.4209 19.5324 11.631 19.2693 11.7768C19.0062 11.9226 18.7104 11.9994 18.4095 12H16.5572L14.143 6.39108C14.114 6.32356 14.0658 6.26603 14.0043 6.22561C13.9429 6.18519 13.871 6.16365 13.7974 6.16365C13.7239 6.16365 13.652 6.18519 13.5906 6.22561C13.5292 6.26603 13.4809 6.32356 13.4519 6.39108L11.0377 11.9976Z" fill="white"/>
<path d="M54.2368 9.82651H42.1379C41.7533 9.82668 41.3743 9.73236 41.0334 9.5516C40.6552 9.34984 40.3237 9.06869 40.0608 8.72685C39.8877 8.50393 39.7939 8.2282 39.7945 7.94439V6.50167H50.1383C50.231 6.5012 50.3198 6.46411 50.386 6.39828L51.9907 4.79107C52.0063 4.7753 52.017 4.75518 52.0213 4.73326C52.0256 4.71135 52.0234 4.68862 52.015 4.66798C52.0065 4.64734 51.9922 4.62971 51.9739 4.61733C51.9556 4.60494 51.934 4.59834 51.912 4.59839H39.7945V1.90798H54.5008C54.5929 1.9079 54.6812 1.87071 54.7463 1.80459L56.3672 0.192678C56.3827 0.177046 56.3932 0.15714 56.3976 0.135441C56.402 0.113742 56.4 0.0912101 56.3919 0.0706607C56.3837 0.0501113 56.3698 0.0324576 56.3518 0.0198917C56.3338 0.00732582 56.3126 0.000403407 56.2908 0H36.6315C36.5701 0 36.5112 0.0247593 36.4677 0.068825C36.4243 0.112891 36.3999 0.172653 36.3999 0.234972V8.18171C36.3993 8.58115 36.5092 8.97275 36.7171 9.31192C37.3272 10.3146 38.1907 11.1332 39.218 11.6828C39.6093 11.8916 40.0448 12.0004 40.4869 12H56.2885C56.3103 11.9996 56.3315 11.9927 56.3495 11.9801C56.3675 11.9676 56.3814 11.9499 56.3895 11.9293C56.3977 11.9088 56.3997 11.8863 56.3953 11.8646C56.3909 11.8429 56.3803 11.823 56.3649 11.8073L54.4846 9.92755C54.4195 9.86143 54.3313 9.82424 54.2392 9.82416" fill="white"/>
<path d="M86.8843 5.1291e-05H83.3035C83.1925 0.00104299 83.0853 0.0400794 83.0004 0.11043L76.8581 5.30492C76.7605 5.38773 76.636 5.43328 76.5072 5.43328C76.3783 5.43328 76.2538 5.38773 76.1563 5.30492L70.002 0.115131C69.9171 0.0447807 69.8099 0.00574422 69.6989 0.00475253H66.1181C66.0942 0.00404322 66.0707 0.0106918 66.0508 0.0237725C66.031 0.0368532 66.0158 0.0557132 66.0073 0.0777077C65.9989 0.0997022 65.9977 0.12374 66.0039 0.146449C66.01 0.169158 66.0232 0.18941 66.0417 0.204369L73.6258 6.55894C73.9524 6.83301 74.2147 7.1736 74.3944 7.55716C74.5741 7.94072 74.667 8.3581 74.6666 8.78044V11.7652C74.6666 11.8274 74.6918 11.8872 74.7366 11.9312C74.7813 11.9753 74.842 12 74.9053 12H78.0947C78.158 12 78.2187 11.9753 78.2635 11.9312C78.3082 11.8872 78.3334 11.8274 78.3334 11.7652V8.77575C78.333 8.35342 78.4259 7.93603 78.6056 7.55247C78.7853 7.16891 79.0476 6.82831 79.3742 6.55423L86.9584 0.199668C86.9768 0.184709 86.99 0.164457 86.9961 0.141748C87.0023 0.119038 87.0011 0.095001 86.9927 0.0730065C86.9842 0.051012 86.969 0.0321663 86.9492 0.0190856C86.9293 0.00600486 86.9058 -0.000658019 86.882 5.1291e-05" fill="white"/>
</svg>
