<svg width="14" height="48" viewBox="0 0 14 48" fill="none" xmlns="http://www.w3.org/2000/svg">
<path fill-rule="evenodd" clip-rule="evenodd" d="M8.84577 40.8613V2.67056C8.84592 2.65658 8.84337 2.6427 8.83826 2.62974C8.83315 2.61677 8.82558 2.60498 8.81599 2.59504C8.80641 2.58509 8.795 2.5772 8.78242 2.57181C8.76984 2.56642 8.75634 2.56365 8.7427 2.56365H5.25847C5.23082 2.56365 5.20431 2.57491 5.18476 2.59496C5.16522 2.61501 5.15423 2.64221 5.15423 2.67056V40.8697C5.15423 40.8837 5.15153 40.8975 5.14628 40.9105C5.14102 40.9234 5.13333 40.9351 5.12364 40.9449C5.11394 40.9547 5.10244 40.9625 5.0898 40.9677C5.07716 40.973 5.06363 40.9756 5.05 40.9754H1.3409C1.32727 40.9756 1.31374 40.973 1.3011 40.9677C1.28846 40.9625 1.27696 40.9547 1.26727 40.9449C1.25757 40.9351 1.24987 40.9234 1.24462 40.9105C1.23937 40.8975 1.23666 40.8837 1.23666 40.8697V0.868714C1.23666 0.85473 1.23937 0.840886 1.24462 0.827982C1.24987 0.815078 1.25757 0.80337 1.26727 0.793538C1.27696 0.783706 1.28846 0.775944 1.3011 0.770703C1.31374 0.765462 1.32727 0.762846 1.3409 0.763005H12.6591C12.6727 0.762846 12.6863 0.765462 12.6989 0.770703C12.7115 0.775944 12.723 0.783706 12.7327 0.793538C12.7424 0.80337 12.7501 0.815078 12.7554 0.827982C12.7606 0.840886 12.7633 0.85473 12.7633 0.868714V40.8697C12.7633 40.8837 12.7606 40.8975 12.7554 40.9105C12.7501 40.9234 12.7424 40.9351 12.7327 40.9449C12.723 40.9547 12.7115 40.9625 12.6989 40.9677C12.6863 40.973 12.6727 40.9756 12.6591 40.9754H8.95C8.93637 40.9756 8.92284 40.973 8.9102 40.9677C8.89756 40.9625 8.88606 40.9547 8.87637 40.9449C8.86667 40.9351 8.85897 40.9234 8.85372 40.9105C8.84847 40.8975 8.84577 40.8837 8.84577 40.8697V40.8613ZM8.2391 38.9057C8.24168 38.9933 8.21081 39.0785 8.15306 39.1431C8.09531 39.2077 8.01524 39.2467 7.92991 39.2517C7.31043 39.2865 6.68956 39.2865 6.07009 39.2517C5.98486 39.2467 5.90492 39.2077 5.84736 39.1431C5.78979 39.0784 5.75918 38.9932 5.76207 38.9057L6.81612 4.20213C6.81643 4.1896 6.8215 4.17768 6.83026 4.16893C6.83901 4.16018 6.85075 4.15528 6.86297 4.15528H7.14405C7.15015 4.15512 7.15622 4.15622 7.16189 4.1585C7.16757 4.16078 7.17275 4.16421 7.17711 4.16857C7.18148 4.17294 7.18494 4.17816 7.18731 4.18392C7.18968 4.18969 7.1909 4.19588 7.1909 4.20213L8.2391 38.9057ZM7.41928 3.59671C7.29484 3.67729 7.15068 3.72006 7.00352 3.72006C6.85635 3.72006 6.71219 3.67729 6.58774 3.59671L5.72576 3.03093C5.71665 3.02447 5.70975 3.01523 5.70604 3.00452C5.70234 2.99381 5.70202 2.98217 5.70513 2.97127C5.70825 2.96036 5.71463 2.95074 5.72338 2.94377C5.73213 2.93679 5.7428 2.93283 5.75387 2.93243H8.24613C8.25764 2.93192 8.26898 2.93539 8.27834 2.94227C8.28771 2.94915 8.29456 2.95905 8.29779 2.97039C8.30103 2.98173 8.30047 2.99385 8.2962 3.00483C8.29193 3.0158 8.28419 3.02499 8.27423 3.03093L7.41928 3.59671ZM13.0877 0.00742927H0.916937C0.862239 0.00727124 0.808051 0.0181862 0.757473 0.0395459C0.706895 0.0609056 0.660924 0.0922934 0.622192 0.131907C0.583461 0.171522 0.552727 0.218584 0.53176 0.2704C0.510792 0.322216 0.5 0.377767 0.5 0.433869V47.5714C0.5 47.6848 0.54393 47.7936 0.622121 47.8738C0.700312 47.954 0.806358 47.999 0.916937 47.999H13.0842C13.1389 47.999 13.1931 47.988 13.2436 47.9664C13.2941 47.9449 13.34 47.9134 13.3786 47.8737C13.4173 47.834 13.4479 47.7868 13.4687 47.7349C13.4895 47.6831 13.5002 47.6275 13.5 47.5714V0.425459C13.5 0.312361 13.4562 0.203896 13.3782 0.123923C13.3002 0.0439507 13.1945 -0.000976562 13.0842 -0.000976562L13.0877 0.00742927ZM4.76254 42.5609L3.82561 44.0925C3.80497 44.1292 3.77526 44.1596 3.73947 44.1807C3.70369 44.2018 3.6631 44.2128 3.62183 44.2126H3.37002L3.04209 43.4306C3.03798 43.4214 3.03138 43.4136 3.02308 43.4082C3.01478 43.4027 3.00511 43.3998 2.99524 43.3998C2.98538 43.3998 2.97572 43.4027 2.96742 43.4082C2.95911 43.4136 2.95251 43.4214 2.9484 43.4306L2.62048 44.2126H2.36867C2.3274 44.2128 2.28681 44.2018 2.25102 44.1807C2.21524 44.1596 2.18553 44.1292 2.16489 44.0925L1.22795 42.5609C1.22641 42.5585 1.22557 42.5556 1.22552 42.5527C1.22547 42.5498 1.22623 42.5469 1.22769 42.5444C1.22916 42.5419 1.23127 42.5399 1.2338 42.5386C1.23633 42.5373 1.23917 42.5367 1.242 42.5369H1.63201C1.63865 42.537 1.64519 42.5386 1.65109 42.5418C1.65699 42.5449 1.66209 42.5494 1.66597 42.5549L2.32417 43.588C2.32971 43.597 2.33751 43.6042 2.34674 43.609C2.35597 43.6138 2.3663 43.6159 2.37662 43.6152C2.38694 43.6144 2.39688 43.6109 2.40538 43.6048C2.41387 43.5988 2.42061 43.5905 2.42488 43.5808L2.72822 42.9489C2.73174 42.9419 2.73713 42.936 2.74375 42.932C2.75038 42.928 2.75799 42.9259 2.7657 42.9261H3.21777C3.22534 42.9259 3.23281 42.9279 3.23926 42.9319C3.24572 42.936 3.25087 42.9419 3.25408 42.9489L3.55858 43.5808C3.56285 43.5905 3.5696 43.5988 3.57809 43.6048C3.58659 43.6109 3.59653 43.6144 3.60685 43.6152C3.61717 43.6159 3.62749 43.6138 3.63672 43.609C3.64596 43.6042 3.65376 43.597 3.6593 43.588L4.3175 42.5549C4.32131 42.5493 4.32639 42.5448 4.33231 42.5416C4.33822 42.5385 4.3448 42.5369 4.35146 42.5369H4.74146C4.7443 42.5367 4.74714 42.5373 4.74967 42.5386L4.75182 42.54L4.75375 42.5417C4.75451 42.5425 4.7552 42.5435 4.75578 42.5444C4.75724 42.5469 4.75799 42.5498 4.75795 42.5527C4.7579 42.5556 4.75706 42.5585 4.75552 42.5609H4.76254ZM6.10183 43.8345C6.18643 43.974 6.30566 44.088 6.44733 44.1648V44.1732C6.50116 44.2022 6.56102 44.2175 6.62184 44.2177H8.80021C8.80326 44.2178 8.80628 44.217 8.80888 44.2154C8.81149 44.2138 8.81355 44.2114 8.81481 44.2085C8.81608 44.2057 8.81647 44.2025 8.81596 44.1994L8.8155 44.1975C8.81519 44.1964 8.81478 44.1954 8.81427 44.1945C8.81364 44.1933 8.81285 44.1922 8.81193 44.1912L8.55192 43.9294C8.5475 43.9247 8.54221 43.9211 8.53638 43.9186C8.53054 43.9161 8.52428 43.9149 8.51796 43.9149H6.85021C6.79719 43.9149 6.74495 43.9017 6.69796 43.8765C6.64513 43.8469 6.59919 43.8059 6.56328 43.7564C6.53973 43.7251 6.52697 43.6866 6.52697 43.6471V43.4465H7.95346C7.95977 43.4465 7.96603 43.4453 7.97187 43.4428C7.97771 43.4403 7.983 43.4367 7.98742 43.432L8.20877 43.2086C8.2107 43.2063 8.21198 43.2035 8.21247 43.2005C8.21297 43.1975 8.21266 43.1944 8.21157 43.1916C8.21101 43.1901 8.21026 43.1887 8.20933 43.1875C8.20847 43.1863 8.20747 43.1853 8.20633 43.1844C8.20398 43.1825 8.20118 43.1813 8.19823 43.181H6.52697V42.8062H8.55427C8.56058 42.8063 8.56684 42.805 8.57268 42.8026C8.57852 42.8001 8.58381 42.7964 8.58823 42.7918L8.81193 42.5636C8.81404 42.5613 8.81544 42.5584 8.81596 42.5554C8.81621 42.5539 8.81624 42.5523 8.81606 42.5508L8.81586 42.5495L8.81523 42.5473L8.81481 42.5463C8.81355 42.5434 8.81149 42.541 8.80888 42.5394C8.80801 42.5388 8.80709 42.5384 8.80613 42.538L8.80396 42.5374C8.80273 42.5372 8.80147 42.5371 8.80021 42.5371H6.09012C6.08173 42.5371 6.07369 42.5405 6.06776 42.5466C6.06183 42.5527 6.0585 42.561 6.0585 42.5696V43.6771C6.0586 43.7326 6.07359 43.7871 6.10183 43.8345ZM7.82545 45.6747H7.38158V46.4303H7.17194V45.6747H6.72689V45.4585H7.82545V45.6747ZM8.65399 45.4597H8.86012V46.4303H8.65399V45.4597ZM10.7678 46.4303H10.5523L9.91756 45.7744V46.4303H9.70323V45.4585H9.91756L10.5523 46.1168V45.4585H10.7678V46.4303ZM12.5169 45.7504H12.7242V45.6303C12.7243 45.6076 12.7201 45.5851 12.7116 45.5641C12.7032 45.5431 12.6908 45.524 12.6751 45.508C12.6594 45.492 12.6407 45.4794 12.6202 45.4709C12.5996 45.4624 12.5777 45.4582 12.5555 45.4585H11.7697C11.7475 45.4582 11.7255 45.4624 11.7049 45.4709C11.6843 45.4794 11.6655 45.492 11.6497 45.508C11.6339 45.5239 11.6214 45.543 11.6128 45.564C11.6043 45.585 11.5999 45.6075 11.5999 45.6303V46.2573C11.6 46.28 11.6045 46.3025 11.6131 46.3234C11.6218 46.3444 11.6343 46.3633 11.6501 46.3793C11.6659 46.3952 11.6845 46.4078 11.7051 46.4164C11.7256 46.4249 11.7475 46.4293 11.7697 46.4291H12.5579C12.5799 46.4293 12.6017 46.4249 12.622 46.4163C12.6423 46.4077 12.6608 46.3951 12.6762 46.3791C12.6917 46.3631 12.704 46.3441 12.7122 46.3232C12.7204 46.3023 12.7245 46.2799 12.7242 46.2573V46.0255C12.7239 45.9797 12.706 45.9359 12.6745 45.9035C12.6429 45.8712 12.6002 45.8528 12.5555 45.8525H12.162V46.0651H12.4759C12.4868 46.0651 12.4972 46.0696 12.5049 46.0774C12.5126 46.0853 12.5169 46.096 12.5169 46.1072V46.1696C12.5169 46.1752 12.5158 46.1806 12.5138 46.1857C12.5129 46.1879 12.5119 46.1899 12.5107 46.1918C12.5091 46.1946 12.5071 46.1971 12.5049 46.1994C12.5011 46.2033 12.4966 46.2064 12.4916 46.2085C12.4895 46.2094 12.4873 46.2101 12.4851 46.2106C12.4821 46.2113 12.479 46.2117 12.4759 46.2117H11.847C11.8366 46.2114 11.8268 46.2069 11.8196 46.1993C11.8124 46.1917 11.8083 46.1815 11.8083 46.1708V45.7168C11.8083 45.7061 11.8124 45.6959 11.8196 45.6883C11.8268 45.6807 11.8366 45.6762 11.847 45.6759H12.4771C12.4823 45.6759 12.4875 45.677 12.4923 45.679C12.4971 45.6811 12.5015 45.6841 12.5052 45.6879C12.5089 45.6917 12.5119 45.6962 12.5139 45.7011C12.5159 45.7061 12.5169 45.7114 12.5169 45.7168V45.7504ZM12.8168 42.5647L11.8025 43.4513C11.759 43.4894 11.724 43.5367 11.6999 43.59C11.6758 43.6433 11.6633 43.7012 11.6632 43.76V44.1768C11.6632 44.1854 11.6598 44.1936 11.6539 44.1997C11.648 44.2058 11.6399 44.2092 11.6315 44.2092H11.2005C11.1922 44.2092 11.1841 44.2058 11.1782 44.1997C11.1723 44.1936 11.1689 44.1854 11.1689 44.1768V43.76C11.1688 43.7012 11.1562 43.6433 11.1322 43.59C11.1081 43.5367 11.0731 43.4894 11.0296 43.4513L10.0153 42.5647C10.0129 42.5627 10.0112 42.56 10.0104 42.5569L10.0099 42.554C10.0097 42.5519 10.01 42.5497 10.0107 42.5476C10.0112 42.546 10.012 42.5445 10.013 42.5431C10.0136 42.5424 10.0142 42.5418 10.0148 42.5411C10.0152 42.5408 10.0156 42.5404 10.0161 42.5401C10.0186 42.5382 10.0216 42.5372 10.0247 42.5371H10.5037C10.5182 42.5371 10.5323 42.5422 10.5435 42.5515L11.3633 43.2723C11.3763 43.2838 11.393 43.2902 11.4102 43.2902C11.4274 43.2902 11.444 43.2838 11.457 43.2723L12.2769 42.5515C12.288 42.542 12.3022 42.5369 12.3167 42.5371H12.7957C12.7988 42.5372 12.8018 42.5382 12.8043 42.5401C12.8068 42.542 12.8087 42.5446 12.8097 42.5476C12.8107 42.5506 12.8108 42.5539 12.81 42.5569C12.8097 42.5579 12.8094 42.5589 12.8089 42.5598L12.8078 42.5617C12.807 42.5628 12.8061 42.5638 12.8051 42.5647H12.8168ZM1.48803 45.8778H2.04083V45.8802C2.06703 45.8799 2.09205 45.869 2.11046 45.8498C2.12888 45.8307 2.13921 45.8049 2.13921 45.7781C2.13921 45.7511 2.12893 45.7252 2.11054 45.7059C2.09216 45.6865 2.06714 45.6754 2.04083 45.6748H1.48803V45.8778ZM1.28074 45.4609H2.04083C2.11939 45.4659 2.19315 45.5014 2.24707 45.5602C2.30098 45.619 2.331 45.6967 2.331 45.7775C2.331 45.8582 2.30098 45.9359 2.24707 45.9947C2.19315 46.0535 2.11939 46.089 2.04083 46.094H1.48803V46.4315H1.28074V45.4609ZM5.32555 46.0555L5.56681 45.6266L5.80807 46.0555H5.32555ZM5.7214 45.4548H5.41221L4.86644 46.4254H5.11122L5.20023 46.2657H5.93104L6.02122 46.4254H6.26951L5.7214 45.4548ZM4.0055 46.1989C4.01294 46.1911 4.0171 46.1806 4.01709 46.1696L4.02295 45.7168C4.02296 45.7058 4.01879 45.6953 4.01136 45.6874C4.00392 45.6796 3.9938 45.675 3.98313 45.6747H3.35421C3.34883 45.6749 3.34353 45.6761 3.33861 45.6784C3.3337 45.6806 3.32926 45.6839 3.32556 45.6879C3.32186 45.6919 3.31898 45.6966 3.31706 45.7018C3.31514 45.7069 3.31423 45.7124 3.31439 45.718V46.1696C3.31438 46.1806 3.31855 46.1911 3.32598 46.1989C3.33342 46.2068 3.34354 46.2113 3.35421 46.2117H3.97728C3.98794 46.2113 3.99807 46.2068 4.0055 46.1989ZM3.2652 45.4585H4.05691C4.07875 45.4588 4.10032 45.4635 4.12038 45.4724C4.14044 45.4813 4.1586 45.4941 4.17383 45.5101C4.18906 45.5262 4.20105 45.5452 4.20912 45.566C4.21719 45.5868 4.22119 45.6091 4.22088 45.6315V46.2573C4.22119 46.3023 4.20413 46.3457 4.17341 46.3779C4.14269 46.41 4.10082 46.4285 4.05691 46.4291H3.2652C3.24342 46.4289 3.22188 46.4244 3.20182 46.4156C3.18177 46.4069 3.1636 46.3942 3.14836 46.3782C3.13311 46.3622 3.12111 46.3433 3.11302 46.3226C3.10493 46.3018 3.10093 46.2797 3.10124 46.2573V45.6315C3.10078 45.609 3.10466 45.5867 3.11268 45.5658C3.1207 45.5449 3.13268 45.5259 3.14793 45.5098C3.16319 45.4937 3.18141 45.4809 3.20155 45.4721C3.22168 45.4633 3.24332 45.4586 3.2652 45.4585Z" fill="white"/>
</svg>
