<svg xmlns="http://www.w3.org/2000/svg" width="32" height="32" viewBox="0 0 32 32" fill="none">
  <path d="M11.738 11.7864C12.5984 13.5784 13.7713 15.2579 15.2567 16.7433C16.7421 18.2287 18.4216 19.4016 20.2136 20.262C20.3678 20.336 20.4448 20.373 20.5423 20.4014C20.8889 20.5025 21.3145 20.4299 21.608 20.2197C21.6906 20.1606 21.7613 20.0899 21.9026 19.9486C22.3347 19.5164 22.5508 19.3004 22.7681 19.1591C23.5876 18.6263 24.644 18.6263 25.4635 19.1591C25.6808 19.3004 25.8969 19.5164 26.3291 19.9486L26.57 20.1895C27.2269 20.8465 27.5554 21.175 27.7338 21.5278C28.0887 22.2294 28.0887 23.058 27.7338 23.7596C27.5554 24.1124 27.2269 24.4408 26.57 25.0978L26.3751 25.2927C25.7204 25.9474 25.393 26.2748 24.9479 26.5248C24.4541 26.8022 23.687 27.0017 23.1206 27C22.6101 26.9985 22.2612 26.8994 21.5634 26.7014C17.8136 25.6371 14.2751 23.6289 11.3231 20.6769C8.3711 17.7249 6.36293 14.1864 5.2986 10.4366C5.10055 9.7388 5.00153 9.38991 5.00001 8.87943C4.99832 8.31298 5.1978 7.54593 5.47523 7.05206C5.72525 6.60699 6.0526 6.27963 6.70732 5.62491L6.90219 5.43005C7.55916 4.77308 7.88764 4.44459 8.24043 4.26616C8.94205 3.91128 9.77063 3.91128 10.4722 4.26616C10.825 4.44459 11.1535 4.77308 11.8105 5.43004L12.0514 5.67094C12.4836 6.10312 12.6996 6.31921 12.8409 6.53651C13.3737 7.35597 13.3737 8.4124 12.8409 9.23187C12.6996 9.44916 12.4836 9.66525 12.0514 10.0974C11.9101 10.2387 11.8394 10.3094 11.7803 10.392C11.5701 10.6855 11.4975 11.1111 11.5986 11.4576C11.627 11.5552 11.664 11.6322 11.738 11.7864Z" fill="#ABC3CD"/>
</svg>
