<svg xmlns="http://www.w3.org/2000/svg" width="40" height="40" viewBox="0 0 40 40" fill="none">
  <g clip-path="url(#clip0_1455_11949)">
    <path d="M20 0.00195312C8.9543 0.00195312 0 8.95625 0 20.002C0 31.0477 8.9543 40.002 20 40.002C31.0457 40.002 40 31.0477 40 20.002C40 8.95625 31.0457 0.00195312 20 0.00195312ZM30.3952 12.6532L26.843 29.6113C26.8001 29.8164 26.7062 30.0075 26.5702 30.1668C26.4341 30.3262 26.2602 30.4489 26.0643 30.5235C25.8685 30.5981 25.6571 30.6223 25.4494 30.5939C25.2418 30.5654 25.0447 30.4853 24.8761 30.3608L19.7092 26.5435L16.5789 29.4966C16.5379 29.5353 16.4897 29.5654 16.4369 29.5852C16.3842 29.605 16.328 29.6141 16.2717 29.612C16.2155 29.6098 16.1602 29.5965 16.1091 29.5728C16.058 29.549 16.0121 29.5153 15.9742 29.4737L15.907 29.3998L16.4509 24.1361L26.2543 15.179C26.3028 15.1348 26.3329 15.074 26.3388 15.0086C26.3447 14.9433 26.3258 14.8781 26.286 14.8259C26.2462 14.7738 26.1882 14.7384 26.1236 14.7269C26.059 14.7154 25.9925 14.7285 25.937 14.7636L13.3996 22.6988L8 20.8853C7.85643 20.8371 7.73129 20.7456 7.64177 20.6234C7.55225 20.5013 7.50272 20.3544 7.49998 20.203C7.49724 20.0515 7.54143 19.903 7.62648 19.7776C7.71152 19.6523 7.83326 19.5564 7.975 19.503L29.1016 11.5445C29.2645 11.4831 29.441 11.4667 29.6125 11.4969C29.784 11.5271 29.9442 11.6028 30.0764 11.7161C30.2086 11.8294 30.3079 11.9762 30.364 12.141C30.4201 12.3059 30.4309 12.4828 30.3952 12.6532Z" fill="#B4CAD4"/>
  </g>
  <defs>
    <clipPath id="clip0_1455_11949">
      <rect width="40" height="40" fill="white" transform="translate(0 0.00195312)"/>
    </clipPath>
  </defs>
</svg>
