<svg xmlns="http://www.w3.org/2000/svg" width="40" height="40" viewBox="0 0 40 40" fill="none">
  <path fill-rule="evenodd" clip-rule="evenodd" d="M0 20.002C0 31.046 8.956 40.002 20 40.002C31.044 40.002 40 31.046 40 20.002C40 8.95795 31.044 0.00195312 20 0.00195312C8.956 0.00195312 0 8.95795 0 20.002ZM31.8761 12.7095C32.7601 12.7095 32.9441 13.1615 32.7601 13.7815C32.4125 15.3702 29.2875 19.8445 28.8832 20.4235C28.8549 20.464 28.8399 20.4855 28.8401 20.4855C28.5321 20.9775 28.4081 21.2255 28.8401 21.7815C28.9919 21.9943 29.3165 22.312 29.688 22.6757C30.0707 23.0503 30.5032 23.4736 30.8481 23.8815C32.1001 25.2935 33.0441 26.4815 33.3081 27.3015C33.5481 28.1255 33.1321 28.5415 32.3001 28.5415H29.3841C28.6028 28.5415 28.2085 28.103 27.3576 27.1567C26.9975 26.7563 26.5557 26.265 25.9681 25.6775C24.2401 24.0095 23.4961 23.7935 23.0641 23.7935C22.4761 23.7935 22.3001 23.9615 22.3001 24.7935V27.4095C22.3001 28.1295 22.0681 28.5455 20.2161 28.5455C17.1241 28.5455 13.7321 26.6695 11.3201 23.2095C7.70414 18.1415 6.71614 14.3095 6.71614 13.5375C6.71614 13.1055 6.88414 12.7135 7.71614 12.7135H10.6321C11.3761 12.7135 11.6561 13.0375 11.9361 13.8455C13.3641 18.0015 15.7681 21.6335 16.7561 21.6335C17.1241 21.6335 17.2961 21.4615 17.2961 20.5215V16.2255C17.2294 15.0013 16.8018 14.4729 16.485 14.0814C16.2895 13.8397 16.1361 13.6502 16.1361 13.3815C16.1361 13.0535 16.4161 12.7095 16.8801 12.7095H21.4641C22.0801 12.7095 22.2961 13.0415 22.2961 13.7815V19.5575C22.2961 20.1775 22.5641 20.3935 22.7481 20.3935C23.1201 20.3935 23.4281 20.1775 24.1081 19.4975C26.2081 17.1495 27.6921 13.5335 27.6921 13.5335C27.8761 13.1015 28.2201 12.7095 28.9601 12.7095H31.8761Z" fill="#B4CAD4"/>
</svg>
