<svg xmlns="http://www.w3.org/2000/svg" width="40" height="40" viewBox="0 0 40 40" fill="none">
  <path fill-rule="evenodd" clip-rule="evenodd" d="M20 0.00195312C31.0383 0.00195312 40 8.96367 40 20.002C40 31.0402 31.0383 40.002 20 40.002C8.96172 40.002 0 31.0402 0 20.002C0 8.96367 8.96172 0.00195312 20 0.00195312ZM31.9777 13.9846C31.6902 12.9089 30.8432 12.062 29.7676 11.7745C27.8177 11.252 20 11.252 20 11.252C20 11.252 12.1823 11.252 10.2324 11.7745C9.15703 12.062 8.30977 12.9089 8.02227 13.9846C7.5 15.9342 7.5 20.0021 7.5 20.0021C7.5 20.0021 7.5 24.0698 8.02227 26.0193C8.30977 27.095 9.15703 27.9423 10.2324 28.2297C12.1823 28.752 20 28.752 20 28.752C20 28.752 27.8177 28.752 29.7676 28.2297C30.8432 27.9423 31.6902 27.095 31.9777 26.0193C32.5 24.0698 32.5 20.0021 32.5 20.0021C32.5 20.0021 32.5 15.9342 31.9777 13.9846ZM17.4999 23.7522V16.252L23.995 20.0021L17.4999 23.7522Z" fill="#B4CAD4"/>
</svg>
